<?xml version="1.0" encoding="utf-8"?>
<!-- Generator: Adobe Illustrator 28.0.0, SVG Export Plug-In . SVG Version: 6.00 Build 0)  -->
<svg version="1.1" id="Layer_1" xmlns="http://www.w3.org/2000/svg" xmlns:xlink="http://www.w3.org/1999/xlink" x="0px" y="0px"
	 viewBox="0 0 628.44 272.46" style="enable-background:new 0 0 628.44 272.46;" xml:space="preserve">
<g>
	<path d="M149.39,84.86l0-18.6c3.72-4.59,6.32-9.99,7.56-15.75c0.21-0.96,0.65-1.8,1.27-2.43l12.65-12.66
		c4.51-4.51,5.28-11.64,1.85-16.95c-6.16-9.51-16.11-15.69-27.25-16.97c-0.33-0.04-1-0.11-1-0.11l-3.93-0.38l-0.02,0.07
		c-19.15-1.48-38.51-1.48-57.68,0l-0.02-0.07l-3.91,0.38c-0.01,0-0.01,0-0.02,0l-0.01,0v0c-0.02,0-0.67,0.06-0.93,0.1
		C66.75,2.8,56.79,8.98,50.64,18.48c-3.44,5.31-2.66,12.44,1.85,16.95l12.66,12.66c0.62,0.63,1.06,1.47,1.27,2.43
		c1.23,5.76,3.84,11.16,7.55,15.75l0,18.59L1.87,207.87c-2.99,5.1-2.35,11.52,1.61,15.97c27.46,30.9,66.9,48.62,108.2,48.62
		c41.31,0,80.74-17.72,108.19-48.62c3.95-4.45,4.6-10.86,1.6-15.97L149.39,84.86z M137.96,9.94c-0.54,1.24-1.16,2.45-1.88,3.61
		c-1.93,3.08-4.38,5.74-7.27,7.91c-4.24,3.16-9.27,5.08-14.55,5.55c-1.67,0.15-3.46,0.15-5.17,0c-5.26-0.47-10.28-2.39-14.54-5.57
		c-2.89-2.14-5.33-4.8-7.26-7.87c-0.72-1.17-1.34-2.38-1.89-3.63C102.86,8.68,120.49,8.68,137.96,9.94z M71.51,41.72L58.85,29.07
		c-1.53-1.53-1.8-3.92-0.66-5.69c4.14-6.39,10.54-10.82,17.9-12.44c0.9,2.57,2.09,5.04,3.54,7.39c2.54,4.05,5.75,7.53,9.53,10.34
		c5.59,4.17,12.2,6.69,19.1,7.31c2.24,0.21,4.61,0.2,6.79,0c6.93-0.62,13.54-3.14,19.13-7.3c3.79-2.83,7-6.31,9.53-10.36
		c1.45-2.34,2.63-4.81,3.53-7.37c7.33,1.6,13.75,6.03,17.9,12.44c1.15,1.77,0.87,4.16-0.66,5.69l-12.65,12.66
		c-1.85,1.85-3.14,4.24-3.71,6.91c-1.03,4.82-3.32,9.31-6.62,13.02c-2.11,2.38-4.57,4.37-7.33,5.93l-0.42,0.23
		c-4.18,2.27-8.91,3.47-13.69,3.47h-16.79c-4.79,0-9.52-1.2-13.68-3.46l-0.31-0.17c-2.81-1.58-5.32-3.6-7.46-6.01
		c-3.29-3.7-5.58-8.2-6.61-13.01C74.65,45.97,73.37,43.58,71.51,41.72z M140.38,84.3c-5.37,5.37-12.68,8.43-20.31,8.43h-16.79
		c-7.64,0-14.95-3.05-20.32-8.42l0-9.96c0.75,0.48,1.52,0.95,2.31,1.38l1.02,0.55h0.05c5.22,2.62,11.05,4.01,16.94,4.01h16.79
		c5.88,0,11.71-1.39,16.95-4.01l1.05-0.55c0.79-0.43,1.56-0.89,2.32-1.38L140.38,84.3z M79.48,93.26
		c6.67,5.43,15.08,8.47,23.81,8.47h16.79c8.72,0,17.12-3.03,23.8-8.47l57.97,98.91c-20.83,29.1-54.31,46.39-90.16,46.39
		c-35.86,0-69.35-17.29-90.17-46.39L79.48,93.26z M213.14,217.86c-25.75,28.98-62.73,45.59-101.47,45.59
		c-38.73,0-75.72-16.62-101.47-45.59c-1.35-1.52-1.58-3.71-0.57-5.44l6.92-11.81c22.63,29.52,57.68,46.95,95.12,46.95
		c37.43,0,72.47-17.43,95.11-46.95l6.92,11.81C214.72,214.16,214.49,216.34,213.14,217.86z"/>
	<path d="M322.18,158.24c-0.91,0-1.41,0.56-1.49,1.69c-0.26,4.85-1.13,8.71-2.6,11.57c-1.47,2.86-4.29,4.81-8.45,5.85
		c-4.16,1.04-11.3,1.56-21.44,1.56c-4.16,0-7.41-0.04-9.75-0.13v-76.67c0-3.81,0.24-6.09,0.71-6.82c0.48-0.74,1.97-1.15,4.48-1.23
		c2.51-0.08,4.01-0.19,4.48-0.32c0.48-0.13,0.72-0.45,0.72-0.97c0-0.87-0.78-1.3-2.34-1.3h-1.43c-1.47,0-3.34,0.06-5.59,0.2
		c-2.25,0.13-3.77,0.19-4.55,0.19c-8.49,0-14.16-0.13-17.02-0.39h-1.17c-1.04,0-1.56,0.39-1.56,1.17c0,0.95,0.82,1.43,2.47,1.43
		c3.98,0,6.3,0.26,6.95,0.78c0.65,0.52,0.97,2.38,0.97,5.59v73.03c0,2.69-0.33,4.31-0.97,4.87c-0.65,0.56-2.62,0.93-5.91,1.11
		c-2.34,0.17-3.51,0.56-3.51,1.17c0,0.78,0.73,1.17,2.2,1.17l53.96,0.39c2.51,0,4.75,0.08,6.74,0.26c1.99,0.17,3.24,0.26,3.76,0.26
		h1.43c0.26-5.2,0.39-8.92,0.39-11.18v-5.07c0-0.61,0-1.21,0-1.82c0-0.6,0-0.99,0-1.17v-3.25
		C323.76,158.89,323.26,158.24,322.18,158.24z"/>
	<path d="M392.94,91.19h-4.29h-7.54c-1.65,0-2.47,0.35-2.47,1.05c0,0.96,0.95,1.4,2.86,1.31c1.04-0.09,3.07,0.09,6.11,0.52
		c1.47,0.17,2.21,0.83,2.21,1.96c0,1.74-1.45,5.4-4.35,10.98l-7.67,15.46c-2.76,5.68-5.22,10.45-7.38,14.33l-11.8-22.35
		c-5.45-10.46-8.18-16.43-8.18-17.91c0-1.92,2.68-2.88,8.06-2.88c2.94,0,4.42-0.39,4.42-1.17c0-0.87-0.78-1.31-2.34-1.31
		c-0.78,0-1.47,0.07-2.08,0.2l-15.07,0.2c-1.39,0-3.64-0.04-6.76-0.13c-5.46-0.17-9.1-0.26-10.92-0.26c-1.38,0-2.08,0.35-2.08,1.04
		c0,0.96,1.58,1.43,4.74,1.43c3.16,0,5.22,0.43,6.17,1.3c1.82,3.12,3.38,5.93,4.68,8.45l12.99,25.73c4.16,8.23,6.67,13.3,7.54,15.2
		v27.32c0,3.45-0.43,5.52-1.3,6.21c-0.87,0.69-3.68,1.12-8.45,1.29c-1.99,0.09-2.99,0.55-2.99,1.37s0.61,1.23,1.82,1.23
		c0.69,0,1.3-0.04,1.82-0.13c3.29-0.17,7.49-0.26,12.6-0.26l18.19,0.39h1.56c1.21,0,1.82-0.33,1.82-0.98c0-0.65-1.17-1.06-3.51-1.23
		c-4.42-0.26-7-0.65-7.73-1.17c-0.74-0.52-1.1-2.21-1.1-5.08v-24.63c0-3.91,0.13-6.45,0.39-7.62c0.26-1.17,1.26-3.37,2.99-6.58
		c2.51-4.68,5.2-10.09,8.06-16.24c6.41-13.92,10.14-21.36,11.18-22.32c1.12-1.58,4.07-2.41,8.84-2.5c1.47,0,2.21-0.33,2.21-0.98
		C406.2,91.34,401.78,90.93,392.94,91.19z"/>
	<path d="M468.98,139.27c-4.42-2.77-10.57-4.42-18.45-4.94v-0.78c7.97-0.95,14.16-3.31,18.58-7.08s6.63-8.6,6.63-14.49
		c0-6.76-2.69-11.91-8.06-15.46c-4.59-3.03-11.57-4.59-20.92-4.68h-25.34c-0.78,0-1.65-0.13-2.6-0.39c-0.95,0-1.47,0-1.56,0
		c-2.17,0-3.25,0.41-3.25,1.23c0,0.91,1.17,1.37,3.51,1.37c3.81,0.09,6.02,0.65,6.63,1.69c0.35,0.61,0.52,2.82,0.52,6.63v70.3
		c0,3.29-0.28,5.26-0.84,5.91c-0.56,0.65-2.4,0.97-5.52,0.97c-2.69,0-4.03,0.37-4.03,1.11c0,0.74,0.73,1.1,2.21,1.1h15.85
		c9.79,0,15.68-0.04,17.67-0.13c7.28-0.52,12.86-1.82,16.76-3.9c8.06-4.24,12.09-10.79,12.09-19.62
		C478.85,149.71,475.56,143.43,468.98,139.27z M437.53,94.83c3.12-0.26,5.41-0.39,6.89-0.39c5.54,0,9.31,0.74,11.3,2.21
		c3.81,2.77,5.72,8.32,5.72,16.63c0,5.8-1.36,10.37-4.09,13.71c-2.73,3.33-6.56,5.09-11.5,5.26l-7.15,0.26h-1.17V94.83z
		 M459.88,173.45c-3.55,3.81-8.32,5.72-14.29,5.72c-3.99,0-6.41-0.3-7.28-0.91c-0.52-0.35-0.78-1.78-0.78-4.29v-38.72
		c7.02,0,11.82,0.39,14.42,1.17c8.84,2.6,13.25,9.36,13.25,20.27C465.21,164.05,463.43,169.64,459.88,173.45z"/>
	<path d="M562.67,179.68c-3.38-0.09-5.61-0.4-6.69-0.94c-1.08-0.53-1.97-1.78-2.66-3.74c-12.39-33.79-20.14-54.88-23.26-63.28
		c-3.98-10.74-6.54-17.8-7.67-21.18c-0.17-0.52-0.39-0.78-0.65-0.78c-0.43,0-0.78,0.48-1.04,1.43l-0.56,2.37
		c-0.61,1.28-1.01,2.43-1.21,3.45c-7,19.38-16.07,45.07-27.21,77.06c-0.69,2.09-1.65,3.5-2.86,4.24c-1.21,0.74-3.18,1.15-5.91,1.24
		c-2.73,0.09-4.09,0.52-4.09,1.3c0,0.78,0.61,1.17,1.82,1.17c0.43,0,1-0.07,1.69-0.22c1.3-0.29,2.64-0.43,4.03-0.43
		c1.38,0,2.73,0.05,4.03,0.13c5.28,0.34,9.92,0.52,13.9,0.52c2.25,0,3.38-0.43,3.38-1.3c0-0.78-1.26-1.21-3.77-1.3
		c-4.07-0.26-6.24-0.43-6.5-0.52c-1.04-0.26-1.56-0.99-1.56-2.21c0-2.08,2.59-10.05,7.79-23.91h27.78
		c3.03,9.19,4.93,15.13,5.71,17.82l0.67,1.81l1.06,3.44c0.18,0.59,0.27,0.93,0.27,1.02c0,1.44-3.81,2.21-11.44,2.29
		c-2.34,0-3.51,0.5-3.51,1.5c0,0.91,0.87,1.36,2.6,1.36c0.69,0,1.34-0.04,1.95-0.13l16.5-0.52l16.5,0.52
		c0.69,0.09,1.47,0.13,2.34,0.13c1.3,0,1.95-0.37,1.95-1.11C566.05,180.18,564.92,179.77,562.67,179.68z M504.42,149.8
		c5.13-15.33,9.52-27.79,13.17-37.38l6.24,18.01c3.26,9.01,5.6,15.47,7.01,19.37H504.42z"/>
	<path d="M623.11,142.07c-3.55-4.2-9.4-8.34-17.54-12.41c-6.93-3.46-11.44-6.15-13.51-8.06c-3.73-3.38-5.59-7.84-5.59-13.38
		c0-4.76,1.28-8.53,3.83-11.3c2.55-2.77,6-4.16,10.33-4.16c4.42,0,8.4,1.71,11.96,5.13c3.55,3.42,5.8,7.69,6.76,12.8
		c0.35,1.99,0.99,2.99,1.95,2.99c0.87,0,1.25-0.47,1.17-1.43l-0.13-2.08c-0.43-2.42-0.65-5.72-0.65-9.87c0-2.94,0.13-5.46,0.39-7.54
		c0.09-0.35,0.13-0.87,0.13-1.56c0-1.04-0.43-1.56-1.3-1.56c-0.78,0-1.26,0.43-1.43,1.3c-0.26,1.47-0.54,2.38-0.84,2.73
		c-0.3,0.35-0.93,0.52-1.88,0.52c-0.87,0-2.21-0.35-4.03-1.04c-5.2-1.99-9.27-2.99-12.21-2.99c-7.1,0-12.97,2.34-17.61,7.02
		c-4.64,4.68-6.95,10.61-6.95,17.8c0,5.63,1.6,10.35,4.81,14.16c3.2,3.81,8.92,7.75,17.15,11.82c6.84,3.38,11.67,6.78,14.49,10.2
		c2.81,3.42,4.22,7.56,4.22,12.41c0,5.46-1.45,9.68-4.35,12.67c-2.9,2.99-7,4.48-12.28,4.48c-12.39,0-19.71-7.79-21.96-23.36
		c-0.35-2.1-0.95-3.15-1.82-3.15c-1.04,0-1.56,0.65-1.56,1.95c0,0.87,0.04,1.56,0.13,2.08c0.17,3.99,0.26,6.41,0.26,7.28
		c0,4.51-0.35,9.4-1.04,14.68c-0.09,0.35-0.13,0.87-0.13,1.56c0,1.04,0.43,1.56,1.3,1.56c1.04,0,1.6-0.62,1.69-1.86
		c0.26-2.4,0.91-3.6,1.95-3.6c0.87,0,2.16,0.39,3.9,1.17c6.5,2.86,12.08,4.29,16.76,4.29c7.97,0,14.79-2.62,20.47-7.86
		c5.67-5.24,8.51-11.58,8.51-19.04C628.44,151.05,626.66,146.27,623.11,142.07z"/>
</g>
</svg>
