<svg width="100" height="43" viewBox="0 0 100 43" fill="none" xmlns="http://www.w3.org/2000/svg">
<g clip-path="url(#clip0_1608_4701)">
<path d="M23.575 13.954V11.0766C24.1621 10.3666 24.5724 9.53122 24.768 8.64017C24.8012 8.49166 24.8706 8.36171 24.9685 8.26425L26.9647 6.30579C27.6765 5.6081 27.798 4.50511 27.2567 3.68367C26.2846 2.2125 24.7144 1.25648 22.9564 1.05846C22.9043 1.05228 22.7986 1.04145 22.7986 1.04145L22.1784 0.982662L22.1752 0.993491C19.1532 0.764539 16.098 0.764539 13.0728 0.993491L13.0697 0.982662L12.4526 1.04145C12.451 1.04145 12.451 1.04145 12.4495 1.04145H12.4479C12.4447 1.04145 12.3422 1.05073 12.3011 1.05692C10.5337 1.25957 8.96188 2.2156 7.99135 3.68522C7.44849 4.50666 7.57158 5.60965 8.2833 6.30733L10.2812 8.2658C10.379 8.36326 10.4484 8.4932 10.4816 8.64171C10.6757 9.53277 11.0876 10.3681 11.673 11.0782V13.954L0.295005 32.9833C-0.176845 33.7723 -0.0758469 34.7654 0.549077 35.4538C4.88251 40.2339 11.1065 42.9752 17.624 42.9752C24.1431 42.9752 30.3655 40.2339 34.6974 35.4538C35.3207 34.7654 35.4233 33.7738 34.9499 32.9833L23.575 13.954ZM21.7712 2.36411C21.686 2.55593 21.5882 2.74311 21.4746 2.92256C21.17 3.39903 20.7834 3.81052 20.3273 4.14622C19.6582 4.63506 18.8644 4.93208 18.0312 5.00479C17.7676 5.02799 17.4851 5.02799 17.2153 5.00479C16.3852 4.93208 15.593 4.63506 14.9208 4.14312C14.4647 3.81207 14.0796 3.40058 13.7751 2.92566C13.6614 2.74466 13.5636 2.55748 13.4768 2.36411C16.2321 2.16919 19.0143 2.16919 21.7712 2.36411ZM11.2848 7.28038L9.28697 5.32346C9.04552 5.08678 9.00291 4.71705 9.18281 4.44324C9.83614 3.45472 10.8461 2.76941 12.0076 2.5188C12.1496 2.91638 12.3374 3.29848 12.5662 3.66202C12.9671 4.28854 13.4736 4.82688 14.0702 5.26158C14.9523 5.90667 15.9954 6.29651 17.0843 6.39242C17.4378 6.4249 17.8118 6.42336 18.1558 6.39242C19.2495 6.29651 20.2926 5.90667 21.1747 5.26313C21.7728 4.82534 22.2794 4.28699 22.6786 3.66047C22.9075 3.29848 23.0937 2.91638 23.2357 2.52035C24.3925 2.76787 25.4056 3.45317 26.0605 4.44478C26.242 4.7186 26.1978 5.08832 25.9563 5.32501L23.9601 7.28347C23.6681 7.56966 23.4645 7.93939 23.3746 8.35243C23.212 9.09807 22.8507 9.79266 22.3299 10.3666C21.9969 10.7348 21.6087 11.0426 21.1731 11.2839L21.1069 11.3195C20.4472 11.6707 19.7008 11.8563 18.9465 11.8563H16.2968C15.5409 11.8563 14.7945 11.6707 14.138 11.3211L14.0891 11.2948C13.6457 11.0503 13.2496 10.7379 12.9118 10.365C12.3927 9.79266 12.0313 9.09652 11.8687 8.35243C11.7804 7.93784 11.5784 7.56812 11.2848 7.28038ZM22.1531 13.8674C21.3057 14.6981 20.1521 15.1715 18.948 15.1715H16.2984C15.0928 15.1715 13.9392 14.6996 13.0917 13.8689V12.3281C13.2101 12.4024 13.3316 12.4751 13.4563 12.5416L13.6172 12.6267H13.6251C14.4489 13.032 15.3689 13.247 16.2984 13.247H18.948C19.876 13.247 20.796 13.032 21.6229 12.6267L21.7886 12.5416C21.9133 12.4751 22.0348 12.4039 22.1547 12.3281L22.1531 13.8674ZM12.5426 15.2535C13.5952 16.0935 14.9223 16.5638 16.3 16.5638H18.9496C20.3257 16.5638 21.6513 16.095 22.7055 15.2535L31.8537 30.5546C28.5665 35.0562 23.2831 37.7309 17.6256 37.7309C11.9666 37.7309 6.68154 35.0562 3.39595 30.5546L12.5426 15.2535ZM33.6353 34.5287C29.5718 39.0118 23.736 41.5814 17.6224 41.5814C11.5105 41.5814 5.67314 39.0103 1.60955 34.5287C1.39651 34.2936 1.36022 33.9548 1.5196 33.6872L2.61164 31.8602C6.18286 36.4269 11.7141 39.1232 17.6224 39.1232C23.5292 39.1232 29.0589 36.4269 32.6317 31.8602L33.7237 33.6872C33.8847 33.9563 33.8484 34.2936 33.6353 34.5287Z" fill="#6C2F67"/>
<path d="M50.8427 25.3057C50.6991 25.3057 50.6202 25.3923 50.6076 25.5671C50.5666 26.3174 50.4293 26.9145 50.1973 27.357C49.9653 27.7994 49.5203 28.1011 48.8638 28.2619C48.2073 28.4228 47.0806 28.5033 45.4804 28.5033C44.8239 28.5033 44.311 28.4971 43.9418 28.4832V16.6225C43.9418 16.0331 43.9796 15.6804 44.0538 15.5675C44.1295 15.453 44.3647 15.3896 44.7608 15.3772C45.1569 15.3649 45.3936 15.3478 45.4678 15.3277C45.5435 15.3076 45.5814 15.2581 45.5814 15.1777C45.5814 15.0431 45.4583 14.9766 45.2121 14.9766H44.9864C44.7545 14.9766 44.4594 14.9858 44.1043 15.0075C43.7492 15.0276 43.5094 15.0369 43.3863 15.0369C42.0465 15.0369 41.1517 15.0168 40.7004 14.9766H40.5157C40.3516 14.9766 40.2695 15.0369 40.2695 15.1576C40.2695 15.3045 40.3989 15.3788 40.6593 15.3788C41.2874 15.3788 41.6535 15.419 41.7561 15.4994C41.8587 15.5799 41.9092 15.8676 41.9092 16.3642V27.6617C41.9092 28.0779 41.8571 28.3285 41.7561 28.4151C41.6535 28.5017 41.3426 28.559 40.8234 28.5868C40.4542 28.6131 40.2695 28.6734 40.2695 28.7678C40.2695 28.8885 40.3847 28.9488 40.6167 28.9488L49.1321 29.0091C49.5282 29.0091 49.8817 29.0215 50.1957 29.0494C50.5098 29.0757 50.707 29.0896 50.7891 29.0896H51.0148C51.0558 28.2851 51.0763 27.7097 51.0763 27.3601V26.5757C51.0763 26.4814 51.0763 26.3886 51.0763 26.2942C51.0763 26.2014 51.0763 26.141 51.0763 26.1132V25.6104C51.0921 25.4062 51.0132 25.3057 50.8427 25.3057Z" fill="#6C2F67"/>
<path d="M62.0096 14.9333H61.3326H60.1427C59.8823 14.9333 59.7529 14.9875 59.7529 15.0958C59.7529 15.2443 59.9028 15.3123 60.2042 15.2984C60.3683 15.2845 60.6887 15.3123 61.1684 15.3789C61.4004 15.4052 61.5172 15.5073 61.5172 15.6821C61.5172 15.9512 61.2884 16.5174 60.8307 17.3806L59.6203 19.7723C59.1848 20.6509 58.7966 21.3888 58.4557 21.9891L56.5935 18.5316C55.7335 16.9134 55.3027 15.9899 55.3027 15.761C55.3027 15.4639 55.7256 15.3154 56.5746 15.3154C57.0386 15.3154 57.2721 15.2551 57.2721 15.1344C57.2721 14.9998 57.149 14.9318 56.9029 14.9318C56.7798 14.9318 56.6709 14.9426 56.5746 14.9627L54.1964 14.9937C53.9771 14.9937 53.622 14.9875 53.1296 14.9735C52.268 14.9472 51.6936 14.9333 51.4064 14.9333C51.1886 14.9333 51.0781 14.9875 51.0781 15.0942C51.0781 15.2427 51.3275 15.3154 51.8261 15.3154C52.3248 15.3154 52.6499 15.3819 52.7998 15.5165C53.087 15.9992 53.3332 16.4339 53.5384 16.8237L55.5883 20.8041C56.2448 22.0772 56.6409 22.8616 56.7782 23.1555V27.3818C56.7782 27.9155 56.7103 28.2357 56.573 28.3425C56.4357 28.4492 55.9923 28.5157 55.2396 28.542C54.9255 28.556 54.7677 28.6271 54.7677 28.754C54.7677 28.8808 54.864 28.9442 55.0549 28.9442C55.1638 28.9442 55.2601 28.9381 55.3421 28.9241C55.8613 28.8978 56.5241 28.8839 57.3305 28.8839L60.2011 28.9442H60.4473C60.6382 28.9442 60.7345 28.8932 60.7345 28.7926C60.7345 28.6921 60.5498 28.6287 60.1806 28.6024C59.483 28.5621 59.0759 28.5018 58.9607 28.4214C58.8439 28.3409 58.7871 28.0795 58.7871 27.6355V23.8253C58.7871 23.2204 58.8076 22.8275 58.8486 22.6465C58.8897 22.4655 59.0475 22.1252 59.3205 21.6286C59.7166 20.9046 60.1411 20.0677 60.5924 19.1163C61.604 16.963 62.1926 15.812 62.3567 15.6635C62.5335 15.4191 62.999 15.2907 63.7518 15.2768C63.9838 15.2768 64.1005 15.2257 64.1005 15.1251C64.1021 14.9565 63.4046 14.8931 62.0096 14.9333Z" fill="#6C2F67"/>
<path d="M74.0107 22.371C73.3132 21.9425 72.3427 21.6872 71.0991 21.6068V21.4861C72.3569 21.3392 73.3337 20.9741 74.0312 20.3909C74.7287 19.8077 75.0775 19.0605 75.0775 18.1493C75.0775 17.1036 74.653 16.3069 73.8055 15.7577C73.0812 15.289 71.9797 15.0476 70.5042 15.0337H66.5053C66.3822 15.0337 66.2449 15.0136 66.095 14.9734C65.9451 14.9734 65.863 14.9734 65.8488 14.9734C65.5064 14.9734 65.3359 15.0368 65.3359 15.1637C65.3359 15.3044 65.5206 15.3756 65.8898 15.3756C66.4911 15.3895 66.8399 15.4762 66.9361 15.637C66.9914 15.7314 67.0182 16.0733 67.0182 16.6627V27.5379C67.0182 28.0468 66.974 28.3516 66.8856 28.4521C66.7972 28.5527 66.5069 28.6022 66.0145 28.6022C65.59 28.6022 65.3785 28.6594 65.3785 28.7739C65.3785 28.8884 65.4937 28.9441 65.7273 28.9441H68.2286C69.7735 28.9441 70.703 28.9379 71.0171 28.924C72.1659 28.8435 73.0465 28.6424 73.6619 28.3207C74.9339 27.6647 75.5699 26.6515 75.5699 25.2855C75.5683 23.986 75.0491 23.0145 74.0107 22.371ZM69.0476 15.4963C69.54 15.456 69.9014 15.4359 70.1349 15.4359C71.0092 15.4359 71.6041 15.5504 71.9182 15.7778C72.5194 16.2063 72.8208 17.0649 72.8208 18.3504C72.8208 19.2477 72.6062 19.9546 72.1754 20.4713C71.7446 20.9865 71.1402 21.2587 70.3606 21.285L69.2322 21.3252H69.0476V15.4963ZM72.5746 27.6585C72.0144 28.2479 71.2617 28.5434 70.3195 28.5434C69.6899 28.5434 69.308 28.497 69.1707 28.4026C69.0886 28.3485 69.0476 28.1273 69.0476 27.739V21.7491C70.1554 21.7491 70.9129 21.8095 71.3232 21.9301C72.7182 22.3323 73.4142 23.3781 73.4142 25.0658C73.4158 26.2044 73.1349 27.0692 72.5746 27.6585Z" fill="#6C2F67"/>
<path d="M88.7963 28.6223C88.2629 28.6083 87.911 28.5604 87.7405 28.4769C87.5701 28.3949 87.4297 28.2015 87.3208 27.8983C85.3655 22.6711 84.1425 19.4085 83.6501 18.1091C83.0221 16.4476 82.6181 15.3555 82.4397 14.8326C82.4129 14.7521 82.3782 14.7119 82.3372 14.7119C82.2693 14.7119 82.2141 14.7862 82.173 14.9331L82.0847 15.2998C81.9884 15.4978 81.9253 15.6757 81.8937 15.8335C80.7891 18.8315 79.3577 22.8057 77.5997 27.7544C77.4909 28.0777 77.3394 28.2959 77.1484 28.4103C76.9575 28.5248 76.6466 28.5882 76.2158 28.6022C75.7849 28.6161 75.5703 28.6826 75.5703 28.8033C75.5703 28.9239 75.6666 28.9843 75.8575 28.9843C75.9254 28.9843 76.0153 28.9734 76.1242 28.9502C76.3294 28.9054 76.5408 28.8837 76.7602 28.8837C76.978 28.8837 77.191 28.8914 77.3962 28.9038C78.2294 28.9564 78.9616 28.9843 79.5897 28.9843C79.9448 28.9843 80.1231 28.9177 80.1231 28.7832C80.1231 28.6625 79.9243 28.596 79.5282 28.5821C78.8859 28.5418 78.5434 28.5155 78.5024 28.5016C78.3383 28.4614 78.2562 28.3485 78.2562 28.1597C78.2562 27.838 78.665 26.605 79.4856 24.4609H83.8695C84.3477 25.8826 84.6475 26.8015 84.7706 27.2176L84.8763 27.4976L85.0436 28.0298C85.072 28.1211 85.0862 28.1736 85.0862 28.1876C85.0862 28.4103 84.4849 28.5295 83.2809 28.5418C82.9116 28.5418 82.727 28.6192 82.727 28.7739C82.727 28.9146 82.8643 28.9843 83.1373 28.9843C83.2461 28.9843 83.3487 28.9781 83.445 28.9642L86.0488 28.8837L88.6527 28.9642C88.7616 28.9781 88.8847 28.9843 89.022 28.9843C89.2271 28.9843 89.3297 28.927 89.3297 28.8125C89.3297 28.6996 89.1514 28.6362 88.7963 28.6223ZM79.6039 23.9999C80.4135 21.6284 81.1063 19.7009 81.6823 18.2173L82.667 21.0034C83.1814 22.3973 83.5507 23.3966 83.7732 23.9999H79.6039Z" fill="#6C2F67"/>
<path d="M98.3314 22.8041C97.7712 22.1544 96.848 21.514 95.5635 20.8843C94.4699 20.3491 93.7581 19.9329 93.4315 19.6375C92.8428 19.1146 92.5493 18.4247 92.5493 17.5676C92.5493 16.8313 92.7513 16.2481 93.1537 15.8196C93.5561 15.391 94.1006 15.176 94.7839 15.176C95.4814 15.176 96.1095 15.4405 96.6713 15.9696C97.2315 16.4987 97.5866 17.1592 97.7381 17.9497C97.7933 18.2576 97.8943 18.4123 98.0458 18.4123C98.1831 18.4123 98.2431 18.3396 98.2304 18.1911L98.2099 17.8693C98.1421 17.4949 98.1074 16.9844 98.1074 16.3424C98.1074 15.8876 98.1279 15.4978 98.1689 15.176C98.1831 15.1219 98.1894 15.0414 98.1894 14.9347C98.1894 14.7738 98.1216 14.6934 97.9843 14.6934C97.8612 14.6934 97.7854 14.7599 97.7586 14.8945C97.7176 15.1219 97.6734 15.2626 97.626 15.3168C97.5787 15.3709 97.4793 15.3972 97.3294 15.3972C97.1921 15.3972 96.9806 15.3431 96.6934 15.2363C95.8728 14.9285 95.2305 14.7738 94.7665 14.7738C93.6461 14.7738 92.7197 15.1358 91.9875 15.8598C91.2553 16.5838 90.8907 17.5011 90.8907 18.6134C90.8907 19.4843 91.1432 20.2145 91.6498 20.8039C92.1548 21.3933 93.0575 22.0028 94.3562 22.6324C95.4356 23.1553 96.1979 23.6813 96.6429 24.2103C97.0863 24.7394 97.3088 25.3798 97.3088 26.1301C97.3088 26.9748 97.08 27.6276 96.6224 28.0901C96.1647 28.5527 95.5177 28.7832 94.6845 28.7832C92.7292 28.7832 91.5741 27.5781 91.219 25.1694C91.1637 24.8446 91.0691 24.6821 90.9318 24.6821C90.7676 24.6821 90.6856 24.7827 90.6856 24.9838C90.6856 25.1184 90.6919 25.2251 90.7061 25.3056C90.7329 25.9228 90.7471 26.2972 90.7471 26.4318C90.7471 27.1295 90.6919 27.8859 90.583 28.7027C90.5688 28.7569 90.5625 28.8373 90.5625 28.9441C90.5625 29.1049 90.6304 29.1854 90.7676 29.1854C90.9318 29.1854 91.0201 29.0895 91.0343 28.8976C91.0754 28.5264 91.178 28.3407 91.3421 28.3407C91.4794 28.3407 91.6829 28.4011 91.9575 28.5217C92.9833 28.9642 93.8639 29.1854 94.6024 29.1854C95.8601 29.1854 96.9364 28.7801 97.8328 27.9695C98.7275 27.1588 99.1757 26.1781 99.1757 25.024C99.1726 24.1933 98.8917 23.4539 98.3314 22.8041Z" fill="#6C2F67"/>
</g>
<defs>
<clipPath id="clip0_1608_4701">
<rect width="100" height="43" fill="white"/>
</clipPath>
</defs>
</svg>
