<svg width="500" height="500" viewBox="0 0 500 500" fill="none" xmlns="http://www.w3.org/2000/svg">
<rect width="500" height="500" fill="white"/>
<path d="M159.88 216.453V204.303C161.919 201.305 163.344 197.777 164.024 194.014C164.139 193.387 164.38 192.839 164.72 192.427L171.653 184.157C174.125 181.211 174.547 176.554 172.667 173.085C169.291 166.873 163.837 162.836 157.731 161.999C157.55 161.973 157.183 161.928 157.183 161.928L155.029 161.679L155.018 161.725C144.522 160.758 133.911 160.758 123.404 161.725L123.393 161.679L121.25 161.928C121.245 161.928 121.245 161.928 121.239 161.928H121.234C121.223 161.928 120.866 161.967 120.724 161.993C114.585 162.849 109.126 166.886 105.755 173.091C103.87 176.56 104.297 181.218 106.769 184.164L113.708 192.434C114.048 192.845 114.289 193.394 114.404 194.021C115.078 197.784 116.509 201.311 118.542 204.309V216.453L79.0246 296.808C77.3858 300.139 77.7366 304.333 79.907 307.24C94.9578 327.425 116.575 339 139.211 339C161.853 339 183.465 327.425 198.51 307.24C200.675 304.333 201.031 300.146 199.387 296.808L159.88 216.453ZM153.615 167.513C153.319 168.323 152.979 169.113 152.585 169.871C151.527 171.883 150.184 173.621 148.6 175.038C146.276 177.102 143.519 178.356 140.625 178.663C139.71 178.761 138.729 178.761 137.792 178.663C134.909 178.356 132.157 177.102 129.822 175.025C128.238 173.627 126.901 171.889 125.843 169.884C125.448 169.12 125.109 168.329 124.807 167.513C134.377 166.69 144.04 166.69 153.615 167.513ZM117.194 188.273L110.255 180.009C109.417 179.01 109.269 177.448 109.893 176.292C112.163 172.118 115.67 169.224 119.704 168.166C120.198 169.845 120.85 171.458 121.645 172.993C123.037 175.639 124.796 177.912 126.868 179.748C129.932 182.472 133.555 184.118 137.337 184.523C138.564 184.66 139.863 184.654 141.058 184.523C144.857 184.118 148.479 182.472 151.543 179.754C153.621 177.906 155.38 175.632 156.767 172.987C157.561 171.458 158.208 169.845 158.701 168.173C162.719 169.218 166.238 172.112 168.512 176.299C169.143 177.455 168.989 179.016 168.151 180.016L161.217 188.286C160.203 189.494 159.496 191.055 159.184 192.799C158.619 195.948 157.364 198.881 155.555 201.305C154.399 202.859 153.051 204.159 151.538 205.178L151.308 205.329C149.017 206.811 146.424 207.595 143.804 207.595H134.602C131.976 207.595 129.384 206.811 127.104 205.335L126.934 205.224C125.394 204.192 124.018 202.872 122.845 201.298C121.042 198.881 119.787 195.942 119.222 192.799C118.915 191.049 118.214 189.488 117.194 188.273ZM154.942 216.087C151.998 219.595 147.992 221.594 143.81 221.594H134.607C130.42 221.594 126.413 219.602 123.47 216.094V209.588C123.881 209.901 124.303 210.208 124.736 210.489L125.295 210.848H125.322C128.183 212.56 131.379 213.468 134.607 213.468H143.81C147.032 213.468 150.228 212.56 153.1 210.848L153.675 210.489C154.108 210.208 154.53 209.908 154.947 209.588L154.942 216.087ZM121.562 221.94C125.218 225.487 129.828 227.473 134.613 227.473H143.815C148.595 227.473 153.199 225.494 156.86 221.94L188.633 286.552C177.216 305.561 158.866 316.855 139.217 316.855C119.562 316.855 101.206 305.561 89.7947 286.552L121.562 221.94ZM194.821 303.333C180.708 322.264 160.439 333.114 139.206 333.114C117.978 333.114 97.7038 322.258 83.5902 303.333C82.8503 302.34 82.7243 300.91 83.2778 299.78L87.0707 292.065C99.4741 311.349 118.685 322.734 139.206 322.734C159.721 322.734 178.926 311.349 191.335 292.065L195.128 299.78C195.687 300.916 195.561 302.34 194.821 303.333Z" fill="#6C2F67"/>
<path d="M254.586 264.388C254.087 264.388 253.813 264.754 253.769 265.492C253.627 268.66 253.15 271.182 252.344 273.05C251.538 274.918 249.993 276.192 247.713 276.871C245.433 277.551 241.519 277.89 235.961 277.89C233.681 277.89 231.9 277.864 230.618 277.805V227.722C230.618 225.233 230.749 223.744 231.007 223.267C231.27 222.783 232.086 222.516 233.462 222.463C234.838 222.411 235.66 222.339 235.918 222.254C236.181 222.169 236.312 221.96 236.312 221.621C236.312 221.052 235.885 220.771 235.03 220.771H234.246C233.44 220.771 232.415 220.811 231.182 220.902C229.949 220.987 229.116 221.026 228.688 221.026C224.035 221.026 220.927 220.941 219.36 220.771H218.718C218.148 220.771 217.863 221.026 217.863 221.536C217.863 222.156 218.313 222.47 219.217 222.47C221.399 222.47 222.67 222.64 223.026 222.979C223.383 223.319 223.558 224.534 223.558 226.631V274.337C223.558 276.094 223.377 277.152 223.026 277.518C222.67 277.884 221.59 278.126 219.787 278.243C218.505 278.354 217.863 278.609 217.863 279.007C217.863 279.517 218.263 279.772 219.069 279.772L248.644 280.026C250.02 280.026 251.248 280.079 252.339 280.196C253.429 280.307 254.114 280.366 254.399 280.366H255.183C255.326 276.969 255.397 274.539 255.397 273.063V269.751C255.397 269.353 255.397 268.961 255.397 268.562C255.397 268.17 255.397 267.915 255.397 267.798V265.675C255.452 264.813 255.178 264.388 254.586 264.388Z" fill="#6C2F67"/>
<path d="M293.371 220.588H291.02H286.887C285.983 220.588 285.533 220.817 285.533 221.274C285.533 221.901 286.054 222.188 287.101 222.13C287.671 222.071 288.783 222.188 290.45 222.469C291.255 222.58 291.661 223.011 291.661 223.75C291.661 224.886 290.866 227.277 289.277 230.922L285.073 241.021C283.56 244.732 282.212 247.847 281.028 250.382L274.56 235.782C271.573 228.949 270.077 225.05 270.077 224.083C270.077 222.829 271.546 222.201 274.495 222.201C276.106 222.201 276.917 221.947 276.917 221.437C276.917 220.869 276.49 220.581 275.635 220.581C275.207 220.581 274.829 220.627 274.495 220.712L266.235 220.843C265.473 220.843 264.24 220.817 262.53 220.758C259.537 220.647 257.542 220.588 256.544 220.588C255.788 220.588 255.404 220.817 255.404 221.267C255.404 221.894 256.27 222.201 258.002 222.201C259.734 222.201 260.863 222.482 261.384 223.051C262.382 225.089 263.237 226.924 263.949 228.57L271.069 245.378C273.349 250.754 274.725 254.066 275.202 255.307V273.154C275.202 275.407 274.966 276.76 274.489 277.21C274.012 277.661 272.472 277.942 269.858 278.053C268.767 278.112 268.219 278.412 268.219 278.948C268.219 279.484 268.553 279.751 269.216 279.751C269.595 279.751 269.929 279.725 270.214 279.667C272.017 279.555 274.319 279.497 277.12 279.497L287.09 279.751H287.945C288.608 279.751 288.942 279.536 288.942 279.111C288.942 278.687 288.301 278.419 287.019 278.308C284.596 278.138 283.182 277.883 282.782 277.544C282.376 277.204 282.179 276.1 282.179 274.225V258.136C282.179 255.582 282.25 253.923 282.393 253.158C282.535 252.394 283.083 250.957 284.031 248.86C285.407 245.803 286.882 242.269 288.449 238.251C291.962 229.158 294.007 224.298 294.577 223.671C295.191 222.639 296.808 222.097 299.422 222.038C300.228 222.038 300.633 221.823 300.633 221.398C300.639 220.686 298.216 220.418 293.371 220.588Z" fill="#6C2F67"/>
<path d="M335.043 251.996C332.62 250.187 329.25 249.109 324.931 248.77V248.26C329.299 247.639 332.692 246.098 335.114 243.635C337.537 241.172 338.748 238.017 338.748 234.17C338.748 229.754 337.274 226.39 334.33 224.071C331.815 222.091 327.989 221.072 322.864 221.014H308.975C308.548 221.014 308.071 220.929 307.55 220.759C307.03 220.759 306.745 220.759 306.695 220.759C305.506 220.759 304.914 221.027 304.914 221.562C304.914 222.157 305.555 222.457 306.838 222.457C308.926 222.516 310.137 222.882 310.472 223.561C310.664 223.96 310.757 225.403 310.757 227.892V273.815C310.757 275.964 310.603 277.251 310.296 277.675C309.989 278.1 308.981 278.309 307.271 278.309C305.796 278.309 305.062 278.55 305.062 279.034C305.062 279.517 305.462 279.752 306.273 279.752H314.961C320.327 279.752 323.555 279.726 324.646 279.668C328.636 279.328 331.694 278.479 333.832 277.12C338.249 274.35 340.458 270.071 340.458 264.303C340.453 258.816 338.649 254.714 335.043 251.996ZM317.805 222.967C319.515 222.797 320.771 222.712 321.582 222.712C324.618 222.712 326.684 223.195 327.775 224.156C329.863 225.965 330.91 229.591 330.91 235.019C330.91 238.808 330.165 241.793 328.669 243.975C327.172 246.15 325.073 247.3 322.365 247.411L318.447 247.581H317.805V222.967ZM330.055 274.324C328.11 276.813 325.495 278.061 322.223 278.061C320.036 278.061 318.71 277.865 318.233 277.466C317.948 277.237 317.805 276.303 317.805 274.664V249.37C321.653 249.37 324.284 249.625 325.709 250.135C330.554 251.833 332.971 256.249 332.971 263.376C332.977 268.184 332.001 271.835 330.055 274.324Z" fill="#6C2F67"/>
<path d="M386.399 278.393C384.546 278.334 383.324 278.131 382.732 277.779C382.14 277.432 381.652 276.616 381.274 275.336C374.483 253.263 370.236 239.486 368.525 233.999C366.344 226.983 364.941 222.371 364.322 220.163C364.228 219.824 364.108 219.654 363.965 219.654C363.73 219.654 363.538 219.967 363.395 220.588L363.088 222.136C362.754 222.972 362.535 223.723 362.425 224.39C358.588 237.049 353.617 253.831 347.511 274.728C347.133 276.093 346.607 277.014 345.944 277.498C345.281 277.981 344.201 278.249 342.705 278.308C341.208 278.367 340.463 278.647 340.463 279.157C340.463 279.667 340.797 279.921 341.46 279.921C341.696 279.921 342.009 279.876 342.387 279.778C343.099 279.588 343.834 279.497 344.596 279.497C345.352 279.497 346.092 279.529 346.804 279.582C349.698 279.804 352.241 279.921 354.423 279.921C355.656 279.921 356.275 279.64 356.275 279.072C356.275 278.563 355.585 278.282 354.209 278.223C351.978 278.053 350.789 277.942 350.647 277.883C350.077 277.713 349.792 277.236 349.792 276.44C349.792 275.081 351.211 269.875 354.061 260.821H369.287C370.948 266.824 371.989 270.704 372.417 272.461L372.784 273.644L373.365 275.891C373.464 276.276 373.513 276.498 373.513 276.557C373.513 277.498 371.425 278.001 367.243 278.053C365.96 278.053 365.319 278.38 365.319 279.033C365.319 279.627 365.796 279.921 366.744 279.921C367.122 279.921 367.479 279.895 367.813 279.836L376.857 279.497L385.9 279.836C386.278 279.895 386.706 279.921 387.183 279.921C387.895 279.921 388.251 279.68 388.251 279.196C388.251 278.719 387.632 278.451 386.399 278.393ZM354.472 258.874C357.284 248.86 359.69 240.721 361.691 234.456L365.111 246.221C366.898 252.107 368.18 256.326 368.953 258.874H354.472Z" fill="#6C2F67"/>
<path d="M419.522 253.824C417.576 251.08 414.37 248.376 409.908 245.717C406.11 243.457 403.638 241.7 402.503 240.452C400.459 238.244 399.44 235.331 399.44 231.712C399.44 228.602 400.141 226.14 401.539 224.33C402.936 222.521 404.827 221.613 407.201 221.613C409.623 221.613 411.805 222.73 413.756 224.964C415.702 227.198 416.935 229.987 417.461 233.325C417.653 234.625 418.004 235.278 418.53 235.278C419.007 235.278 419.215 234.971 419.171 234.344L419.1 232.986C418.864 231.405 418.744 229.249 418.744 226.538C418.744 224.618 418.815 222.972 418.957 221.613C419.007 221.384 419.029 221.044 419.029 220.594C419.029 219.914 418.793 219.575 418.316 219.575C417.889 219.575 417.625 219.856 417.532 220.424C417.39 221.384 417.236 221.979 417.072 222.207C416.907 222.436 416.562 222.547 416.041 222.547C415.565 222.547 414.83 222.318 413.833 221.868C410.983 220.568 408.752 219.914 407.14 219.914C403.249 219.914 400.032 221.443 397.488 224.5C394.945 227.557 393.679 231.431 393.679 236.128C393.679 239.805 394.556 242.889 396.315 245.377C398.069 247.866 401.204 250.44 405.715 253.099C409.464 255.307 412.112 257.528 413.657 259.762C415.197 261.996 415.97 264.7 415.97 267.868C415.97 271.435 415.175 274.192 413.586 276.145C411.997 278.098 409.749 279.071 406.855 279.071C400.064 279.071 396.052 273.983 394.819 263.812C394.627 262.44 394.298 261.754 393.822 261.754C393.252 261.754 392.967 262.179 392.967 263.028C392.967 263.596 392.988 264.047 393.038 264.387C393.131 266.993 393.18 268.574 393.18 269.142C393.18 272.088 392.989 275.283 392.61 278.732C392.561 278.96 392.539 279.3 392.539 279.751C392.539 280.43 392.775 280.77 393.252 280.77C393.822 280.77 394.129 280.365 394.178 279.555C394.32 277.987 394.677 277.203 395.247 277.203C395.724 277.203 396.431 277.458 397.384 277.967C400.947 279.836 404.005 280.77 406.57 280.77C410.939 280.77 414.677 279.058 417.79 275.635C420.898 272.212 422.454 268.071 422.454 263.198C422.443 259.69 421.468 256.567 419.522 253.824Z" fill="#6C2F67"/>
</svg>
