<svg width="24" height="24" viewBox="0 0 24 24" fill="none" xmlns="http://www.w3.org/2000/svg">
<path d="M12 12C10.625 12 9.44792 11.5104 8.46875 10.5312C7.48958 9.55208 7 8.375 7 7C7 5.625 7.48958 4.44792 8.46875 3.46875C9.44792 2.48958 10.625 2 12 2C13.375 2 14.5521 2.48958 15.5312 3.46875C16.5104 4.44792 17 5.625 17 7C17 8.375 16.5104 9.55208 15.5312 10.5312C14.5521 11.5104 13.375 12 12 12ZM2 22V18.5C2 17.7917 2.18229 17.1406 2.54688 16.5469C2.91146 15.9531 3.39583 15.5 4 15.1875C5.29167 14.5417 6.60417 14.0573 7.9375 13.7344C9.27083 13.4115 10.625 13.25 12 13.25C13.375 13.25 14.7292 13.4115 16.0625 13.7344C17.3958 14.0573 18.7083 14.5417 20 15.1875C20.6042 15.5 21.0885 15.9531 21.4531 16.5469C21.8177 17.1406 22 17.7917 22 18.5V22H2Z" fill="#64748B"/>
</svg>
