<?xml version="1.0" standalone="no"?>
<!DOCTYPE svg PUBLIC "-//W3C//DTD SVG 20010904//EN"
 "http://www.w3.org/TR/2001/REC-SVG-20010904/DTD/svg10.dtd">
<svg version="1.0" xmlns="http://www.w3.org/2000/svg"
 width="256.000000pt" height="256.000000pt" viewBox="0 0 256.000000 256.000000"
 preserveAspectRatio="xMidYMid meet">

<g transform="translate(0.000000,256.000000) scale(0.100000,-0.100000)"
fill="#000000" stroke="none">
<path d="M1220 2554 c-90 -11 -243 -49 -323 -80 -349 -134 -586 -419 -668
-804 -31 -144 -34 -460 -5 -590 124 -567 535 -989 1036 -1065 177 -27 275 -17
395 41 158 75 264 219 296 398 15 90 7 169 -31 291 -40 127 -38 194 6 258 16
23 86 85 154 137 149 113 206 168 259 250 120 185 146 454 63 642 -49 112
-166 246 -287 329 -114 79 -285 145 -453 175 -84 15 -371 27 -442 18z m242
-217 c73 -45 110 -117 110 -217 0 -277 -298 -343 -378 -83 -27 86 3 222 62
275 59 53 144 63 206 25z m-607 -286 c87 -39 130 -127 123 -250 -6 -97 -37
-158 -102 -196 -109 -64 -231 -5 -272 131 -38 128 15 267 121 315 50 23 80 23
130 0z m1180 0 c51 -23 78 -53 106 -116 48 -107 16 -258 -68 -322 -27 -21 -49
-28 -97 -31 -55 -3 -65 -1 -103 27 -63 45 -97 117 -97 206 -1 84 15 134 57
182 35 39 98 73 137 73 14 0 43 -9 65 -19z m-1275 -693 c59 -31 96 -80 115
-155 29 -114 -15 -241 -100 -291 -57 -32 -138 -27 -190 12 -54 41 -90 123 -90
206 0 88 25 150 81 199 64 56 114 64 184 29z m778 -597 c83 -43 132 -122 132
-212 0 -148 -97 -249 -240 -249 -72 0 -123 19 -168 63 -72 68 -95 156 -68 251
42 143 211 215 344 147z"/>
</g>
</svg>
