<svg xmlns="http://www.w3.org/2000/svg" viewBox="0 0 103.24 103.24"><defs><style>.cls-1{fill:#743373;}.cls-2{fill:#fff;}</style></defs><g id="Слой_2" data-name="Слой 2"><g id="Layer_1" data-name="Layer 1"><circle class="cls-1" cx="51.62" cy="51.62" r="51.62"/><path class="cls-2" d="M31.69,45.41V43.16a4.53,4.53,0,0,0,.91-1.9.62.62,0,0,1,.16-.3l1.53-1.53a1.66,1.66,0,0,0,.22-2,4.53,4.53,0,0,0-3.3-2.05h-.12l-.47,0h0a45.18,45.18,0,0,0-7,0h0l-.47,0h-.12a4.54,4.54,0,0,0-3.3,2.05,1.65,1.65,0,0,0,.22,2L21.5,41a.62.62,0,0,1,.16.3,4.59,4.59,0,0,0,.91,1.9v2.25L13.85,60.28a1.65,1.65,0,0,0,.2,1.93,17.49,17.49,0,0,0,26.16,0,1.65,1.65,0,0,0,.2-1.93Zm-1.38-9.06a3.68,3.68,0,0,1-.23.44,3.46,3.46,0,0,1-.88,1,3.4,3.4,0,0,1-1.76.67,3.21,3.21,0,0,1-.62,0,3.4,3.4,0,0,1-1.76-.67,3.46,3.46,0,0,1-.88-1,3.68,3.68,0,0,1-.23-.44A45,45,0,0,1,30.31,36.35Zm-8,3.84-1.53-1.53a.56.56,0,0,1-.08-.69,3.49,3.49,0,0,1,2.17-1.5,4.29,4.29,0,0,0,.43.89,4.43,4.43,0,0,0,1.15,1.25,4.5,4.5,0,0,0,2.31.89,5.61,5.61,0,0,0,.82,0,4.5,4.5,0,0,0,2.31-.89A4.43,4.43,0,0,0,31,37.36a4.29,4.29,0,0,0,.43-.89A3.48,3.48,0,0,1,33.6,38a.57.57,0,0,1-.08.69L32,40.19a1.68,1.68,0,0,0-.45.84,3.51,3.51,0,0,1-.8,1.57,3.61,3.61,0,0,1-.89.72l-.05,0a3.56,3.56,0,0,1-1.66.42h-2a3.52,3.52,0,0,1-1.65-.42l0,0a3.52,3.52,0,0,1-1.7-2.3A1.68,1.68,0,0,0,22.27,40.19Zm8.33,5.15a3.47,3.47,0,0,1-2.46,1h-2a3.47,3.47,0,0,1-2.46-1v-1.2l.28.16.12.07h0a4.5,4.5,0,0,0,2,.48h2a4.51,4.51,0,0,0,2.05-.48l.13-.07.28-.16Zm-7.36,1.08a4.53,4.53,0,0,0,2.88,1h2a4.55,4.55,0,0,0,2.88-1l7,12a13.39,13.39,0,0,1-21.8,0ZM39.4,61.49a16.42,16.42,0,0,1-24.54,0,.58.58,0,0,1-.07-.66l.84-1.43a14.48,14.48,0,0,0,23,0l.84,1.43A.57.57,0,0,1,39.4,61.49Z"/><path class="cls-2" d="M52.58,54.28c-.11,0-.17.07-.18.2a3.58,3.58,0,0,1-.31,1.4,1.48,1.48,0,0,1-1,.71,12,12,0,0,1-2.6.19l-1.18,0V47.49a2,2,0,0,1,.09-.82q.09-.14.54-.15a2.93,2.93,0,0,0,.54,0,.12.12,0,0,0,.09-.12c0-.1-.09-.16-.28-.16H48.1l-.68,0-.55,0c-1,0-1.71,0-2.06,0h-.14c-.13,0-.19,0-.19.15s.1.17.3.17a2.07,2.07,0,0,1,.84.09c.08.07.12.29.12.68v8.83c0,.32,0,.52-.12.59a1.52,1.52,0,0,1-.71.13c-.29,0-.43.07-.43.14s.09.14.27.14l6.52.05c.31,0,.58,0,.82,0l.45,0h.17c0-.62,0-1.07,0-1.35V54.52Q52.78,54.28,52.58,54.28Z"/><path class="cls-2" d="M61.14,46.17H59.71c-.2,0-.3,0-.3.13s.11.17.34.16a4.22,4.22,0,0,1,.74.06q.27,0,.27.24a4.16,4.16,0,0,1-.53,1.33L59.31,50c-.34.68-.63,1.26-.89,1.73L57,49a10.82,10.82,0,0,1-1-2.17c0-.23.32-.35,1-.35.36,0,.54,0,.54-.14s-.1-.16-.28-.16a1,1,0,0,0-.26,0l-1.82,0c-.17,0-.44,0-.82,0l-1.32,0c-.16,0-.25,0-.25.13s.19.17.58.17a1.13,1.13,0,0,1,.74.16q.33.57.57,1l1.57,3.11c.5,1,.81,1.61.91,1.84v3.3c0,.42-.05.67-.16.75a2.23,2.23,0,0,1-1,.16c-.24,0-.36.07-.36.17s.07.14.22.14H56q.6,0,1.53,0l2.19,0h.19c.15,0,.22,0,.22-.11s-.14-.13-.42-.15a2.78,2.78,0,0,1-.94-.14c-.08-.07-.13-.27-.13-.62v-3a5.5,5.5,0,0,1,0-.92,3.67,3.67,0,0,1,.36-.79c.3-.57.63-1.22,1-2a23.34,23.34,0,0,1,1.35-2.7c.14-.19.5-.29,1.07-.3q.27,0,.27-.12C62.74,46.19,62.21,46.14,61.14,46.17Z"/><path class="cls-2" d="M70.33,52a4.7,4.7,0,0,0-2.23-.6V51.3a4.28,4.28,0,0,0,2.25-.86,2.22,2.22,0,0,0,.8-1.75,2.1,2.1,0,0,0-1-1.87,4.66,4.66,0,0,0-2.53-.57H64.58a.91.91,0,0,1-.31,0h-.19c-.26,0-.4,0-.4.15s.15.17.43.17c.46,0,.73.08.8.2a2.77,2.77,0,0,1,.06.8V56a1.42,1.42,0,0,1-.1.72c-.07.08-.29.12-.67.12s-.48,0-.48.13.08.13.26.13H68a5.13,5.13,0,0,0,2-.47,2.52,2.52,0,0,0,1.46-2.38A2.49,2.49,0,0,0,70.33,52Zm-3.8-5.38c.38,0,.65,0,.83,0a2.56,2.56,0,0,1,1.37.26,2.38,2.38,0,0,1,.69,2,2.53,2.53,0,0,1-.5,1.66,1.76,1.76,0,0,1-1.39.64l-.86,0h-.14Zm2.7,9.51a2.24,2.24,0,0,1-1.73.69,2.09,2.09,0,0,1-.88-.11c-.06,0-.09-.21-.09-.52V51.5a7.27,7.27,0,0,1,1.74.14,2.24,2.24,0,0,1,1.6,2.45A2.88,2.88,0,0,1,69.23,56.12Z"/><path class="cls-2" d="M81.66,56.87a2.41,2.41,0,0,1-.81-.11.74.74,0,0,1-.32-.45q-2.25-6.14-2.82-7.65c-.48-1.3-.79-2.16-.92-2.57,0-.06-.05-.09-.08-.09s-.09.06-.13.17l-.06.29a1.34,1.34,0,0,0-.15.42q-1.28,3.51-3.29,9.31a.87.87,0,0,1-.35.52,1.47,1.47,0,0,1-.71.15c-.33,0-.5.06-.5.15s.08.15.22.15l.21,0a2,2,0,0,1,.49-.05h.48c.64,0,1.2.07,1.68.07.28,0,.41-.06.41-.16s-.15-.15-.45-.16l-.79-.06a.25.25,0,0,1-.19-.27,17.87,17.87,0,0,1,.94-2.89h3.36q.56,1.66.69,2.16l.08.21.13.42,0,.12c0,.18-.46.27-1.38.28q-.42,0-.42.18c0,.11.1.17.31.17l.24,0,2-.06,2,.06.28,0c.16,0,.24,0,.24-.14S81.93,56.88,81.66,56.87Zm-7-3.61q.93-2.77,1.59-4.52L77,50.92c.4,1.09.68,1.87.85,2.34Z"/><path class="cls-2" d="M89,52.32a7,7,0,0,0-2.12-1.5,7.89,7.89,0,0,1-1.64-1,2.08,2.08,0,0,1-.67-1.62A2,2,0,0,1,85,46.86a1.63,1.63,0,0,1,1.25-.5,2,2,0,0,1,1.44.62,2.79,2.79,0,0,1,.82,1.55q.06.36.24.36c.1,0,.15-.06.14-.17l0-.25a7.44,7.44,0,0,1-.08-1.2,7.77,7.77,0,0,1,0-.91.78.78,0,0,0,0-.19c0-.12-.06-.18-.16-.18a.16.16,0,0,0-.17.15.85.85,0,0,1-.11.33.29.29,0,0,1-.22.06,1.6,1.6,0,0,1-.49-.12,4.49,4.49,0,0,0-1.48-.36,2.86,2.86,0,0,0-2.13.85,2.92,2.92,0,0,0-.84,2.15,2.6,2.6,0,0,0,.58,1.71,6.52,6.52,0,0,0,2.08,1.43,5.36,5.36,0,0,1,1.75,1.23,2.31,2.31,0,0,1,.51,1.5,2.09,2.09,0,0,1-.53,1.54,2,2,0,0,1-1.48.54c-1.5,0-2.38-.94-2.66-2.83,0-.25-.11-.38-.22-.38s-.18.08-.18.24a1.78,1.78,0,0,0,0,.25c0,.48,0,.78,0,.88A14.37,14.37,0,0,1,83,56.94a.74.74,0,0,0,0,.18c0,.13,0,.19.16.19s.19-.07.2-.22.11-.44.24-.44a1.41,1.41,0,0,1,.47.14,5.14,5.14,0,0,0,2,.52,3.48,3.48,0,0,0,2.47-1,3,3,0,0,0,1-2.3A2.62,2.62,0,0,0,89,52.32Z"/></g></g></svg>